<svg width="800" height="600" viewBox="0 0 800 600" version="1.1" xmlns="http://www.w3.org/2000/svg" xmlns:xlink="http://www.w3.org/1999/xlink">
<g id="Canvas" transform="translate(450 -1371)">
<clipPath id="clip-0" clip-rule="evenodd">
<path d="M -450 1371L 350 1371L 350 1971L -450 1971L -450 1371Z" fill="#FFFFFF"/>
</clipPath>
<g id="Loading" clip-path="url(#clip-0)">
<path d="M -450 1371L 350 1371L 350 1971L -450 1971L -450 1371Z" fill="#ECF0F3"/>
<g id="Group">
<g id="Vector">
<use xlink:href="#path0_fill" transform="translate(-104.5 1520)" fill="#60676E"/>
</g>
<g id="Loading">
<use xlink:href="#path1_fill" transform="translate(-201 1737)" fill="#60676E"/>
</g>
</g>
</g>
</g>
<defs>
<path id="path0_fill" d="M 0 0L 0 54.5L 0.0908354 54.5L 0 54.5908L 36.3333 90.8333L 0 127.167L 0.0908354 127.258L 0 127.258L 0 181.667L 109 181.667L 109 127.258L 108.909 127.258L 109 127.167L 72.6667 90.8333L 109 54.5908L 108.909 54.5L 109 54.5L 109 0L 0 0Z"/>
<path id="path1_fill" d="M 15.1562 58.5273L 37.5508 58.5273L 37.5508 67L 4.60938 67L 4.60938 15.8125L 15.1562 15.8125L 15.1562 58.5273ZM 83.4297 42.5664C 83.4297 47.6055 82.5391 52.0234 80.7578 55.8203C 78.9766 59.6172 76.4219 62.5469 73.0938 64.6094C 69.7891 66.6719 65.9922 67.7031 61.7031 67.7031C 57.4609 67.7031 53.6758 66.6836 50.3477 64.6445C 47.0195 62.6055 44.4414 59.6992 42.6133 55.9258C 40.7852 52.1289 39.8594 47.7695 39.8359 42.8477L 39.8359 40.3164C 39.8359 35.2773 40.7383 30.8477 42.543 27.0273C 44.3711 23.1836 46.9375 20.2422 50.2422 18.2031C 53.5703 16.1406 57.3672 15.1094 61.6328 15.1094C 65.8984 15.1094 69.6836 16.1406 72.9883 18.2031C 76.3164 20.2422 78.8828 23.1836 80.6875 27.0273C 82.5156 30.8477 83.4297 35.2656 83.4297 40.2812L 83.4297 42.5664ZM 72.7422 40.2461C 72.7422 34.8789 71.7812 30.8008 69.8594 28.0117C 67.9375 25.2227 65.1953 23.8281 61.6328 23.8281C 58.0938 23.8281 55.3633 25.2109 53.4414 27.9766C 51.5195 30.7188 50.5469 34.75 50.5234 40.0703L 50.5234 42.5664C 50.5234 47.793 51.4844 51.8477 53.4062 54.7305C 55.3281 57.6133 58.0938 59.0547 61.7031 59.0547C 65.2422 59.0547 67.9609 57.6719 69.8594 54.9062C 71.7578 52.1172 72.7188 48.0625 72.7422 42.7422L 72.7422 40.2461ZM 119.219 56.4531L 100.727 56.4531L 97.2109 67L 85.9961 67L 105.051 15.8125L 114.824 15.8125L 133.984 67L 122.77 67L 119.219 56.4531ZM 103.574 47.9102L 116.371 47.9102L 109.938 28.75L 103.574 47.9102ZM 138.766 67L 138.766 15.8125L 154.516 15.8125C 159.016 15.8125 163.035 16.832 166.574 18.8711C 170.137 20.8867 172.914 23.7695 174.906 27.5195C 176.898 31.2461 177.895 35.4883 177.895 40.2461L 177.895 42.6016C 177.895 47.3594 176.91 51.5898 174.941 55.293C 172.996 58.9961 170.242 61.8672 166.68 63.9062C 163.117 65.9453 159.098 66.9766 154.621 67L 138.766 67ZM 149.312 24.3555L 149.312 58.5273L 154.41 58.5273C 158.535 58.5273 161.688 57.1797 163.867 54.4844C 166.047 51.7891 167.16 47.9336 167.207 42.918L 167.207 40.2109C 167.207 35.0078 166.129 31.0703 163.973 28.3984C 161.816 25.7031 158.664 24.3555 154.516 24.3555L 149.312 24.3555ZM 196.809 67L 186.262 67L 186.262 15.8125L 196.809 15.8125L 196.809 67ZM 248.242 67L 237.695 67L 217.164 33.3203L 217.164 67L 206.617 67L 206.617 15.8125L 217.164 15.8125L 237.73 49.5625L 237.73 15.8125L 248.242 15.8125L 248.242 67ZM 297.953 60.5312C 296.055 62.8047 293.371 64.5742 289.902 65.8398C 286.434 67.082 282.59 67.7031 278.371 67.7031C 273.941 67.7031 270.051 66.7422 266.699 64.8203C 263.371 62.875 260.793 60.0625 258.965 56.3828C 257.16 52.7031 256.234 48.3789 256.188 43.4102L 256.188 39.9297C 256.188 34.8203 257.043 30.4023 258.754 26.6758C 260.488 22.9258 262.973 20.0664 266.207 18.0977C 269.465 16.1055 273.273 15.1094 277.633 15.1094C 283.703 15.1094 288.449 16.5625 291.871 19.4688C 295.293 22.3516 297.32 26.5586 297.953 32.0898L 287.688 32.0898C 287.219 29.1602 286.176 27.0156 284.559 25.6562C 282.965 24.2969 280.762 23.6172 277.949 23.6172C 274.363 23.6172 271.633 24.9648 269.758 27.6602C 267.883 30.3555 266.934 34.3633 266.91 39.6836L 266.91 42.9531C 266.91 48.3203 267.93 52.375 269.969 55.1172C 272.008 57.8594 274.996 59.2305 278.934 59.2305C 282.895 59.2305 285.719 58.3867 287.406 56.6992L 287.406 47.875L 277.809 47.875L 277.809 40.1055L 297.953 40.1055L 297.953 60.5312Z"/>
</defs>
</svg>
