<svg width="234" height="30" viewBox="0 0 234 30" version="1.1" xmlns="http://www.w3.org/2000/svg" xmlns:xlink="http://www.w3.org/1999/xlink">
  <path fill="#ffffff" fill-rule="evenodd" d="M 233.61 10.1299C 233.61 15.7306 229.085 20.2598 223.09 20.2598C 221.269 20.2598 219.55 19.841 218.041 19.1007C 216.522 20.6202 214.656 21.5504 212.672 21.8134C 212.476 21.8426 212.288 21.677 212.239 21.4384C 212.19 21.1949 212.34 21.0439 212.488 20.8637C 213.215 19.9676 214.097 19.2663 214.444 16.2566C 213.057 14.5569 212.57 12.4335 212.57 10.1299C 212.57 4.53411 217.095 0 223.09 0C 229.085 0 233.61 4.53411 233.61 10.1299ZM 221.162 7.4353L 222.472 4.72763C 222.708 4.23886 223.388 4.24499 223.623 4.72763L 224.932 7.4353L 227.861 7.87089C 228.387 7.94861 228.597 8.60916 228.216 8.9875L 226.097 11.0939L 226.598 14.0695C 226.688 14.6073 226.133 15.0082 225.668 14.7587L 223.047 13.3537L 220.426 14.7587C 219.961 15.0102 219.406 14.6073 219.496 14.0695L 219.997 11.0939L 217.878 8.9875C 217.497 8.60916 217.707 7.94861 218.233 7.87089L 221.162 7.4353Z"/>
  <path fill="#ffffff" d="M 0 7.25903L 5.08132 7.25903C 7.09903 7.25903 8.53365 7.74958 9.38516 8.73067C 10.2367 9.69325 10.6624 11.1094 10.6624 12.979C 10.6624 14.4043 10.431 15.5798 9.96826 16.5054C 9.50549 17.4309 8.70025 18.014 7.55256 18.2547L 10.9956 29.7501L 8.94089 29.7501L 5.63665 18.6989L 2.11027 18.6989L 2.11027 29.7501L 0 29.7501L 0 7.25903ZM 4.97025 17.144C 6.32156 17.144 7.26563 16.8108 7.80246 16.1444C 8.33928 15.478 8.60769 14.4229 8.60769 12.979C 8.60769 11.5166 8.34854 10.4615 7.83022 9.81357C 7.33042 9.16568 6.39561 8.84173 5.02578 8.84173L 2.11027 8.84173L 2.11027 17.144L 4.97025 17.144Z"/>
  <path fill="#ffffff" d="M 19.1797 30C 18.143 30 17.31 29.7964 16.6807 29.3891C 16.0513 28.9819 15.5885 28.3247 15.2923 27.4177C 14.9961 26.5106 14.8481 25.2797 14.8481 23.7247L 14.8481 19.6708C 14.8481 18.0973 14.9961 16.8663 15.2923 15.9778C 15.607 15.0707 16.079 14.4229 16.7084 14.0341C 17.3563 13.6454 18.1893 13.451 19.2074 13.451C 20.3181 13.451 21.1696 13.6917 21.762 14.173C 22.3728 14.6357 22.7893 15.3392 23.0115 16.2832C 23.2521 17.2273 23.3724 18.4953 23.3724 20.0873L 23.3724 21.5311L 16.875 21.5311L 16.875 24.3356C 16.875 25.872 17.0509 26.9457 17.4026 27.5565C 17.7543 28.1674 18.3467 28.4728 19.1797 28.4728C 19.8831 28.4728 20.4199 28.2507 20.7901 27.8064C 21.1789 27.3622 21.3732 26.5569 21.3732 25.3907L 21.3732 24.28L 23.3447 24.28L 23.3447 25.1686C 23.3447 26.7235 23.0207 27.9175 22.3728 28.7505C 21.725 29.5835 20.6606 30 19.1797 30ZM 21.3732 20.3649L 21.3732 19.0321C 21.3732 18.0696 21.3177 17.3106 21.2066 16.7553C 21.1141 16.1999 20.9105 15.7649 20.5958 15.4502C 20.2811 15.1355 19.809 14.9782 19.1797 14.9782C 18.6058 14.9782 18.1523 15.1078 17.8191 15.3669C 17.4859 15.6076 17.2452 16.0426 17.0972 16.672C 16.9491 17.2828 16.875 18.1529 16.875 19.282L 16.875 20.3649L 21.3732 20.3649Z"/>
  <path fill="#ffffff" d="M 31.1619 30C 29.9031 30 28.885 29.5928 28.1075 28.7783C 27.3486 27.9638 26.9136 26.8531 26.8025 25.4463L 28.4963 24.9187C 28.6073 26.1404 28.8943 27.0382 29.357 27.6121C 29.8198 28.1859 30.4677 28.4728 31.3007 28.4728C 32.0041 28.4728 32.541 28.2785 32.9112 27.8897C 33.2999 27.4825 33.4943 26.9179 33.4943 26.196C 33.4943 25.1408 32.8464 24.0672 31.5506 22.975L 29.357 21.0869C 28.5981 20.4575 28.0428 19.8374 27.691 19.2265C 27.3393 18.6156 27.1635 17.8937 27.1635 17.0607C 27.1635 15.9315 27.5059 15.0522 28.1908 14.4229C 28.8943 13.775 29.8291 13.451 30.9953 13.451C 32.18 13.451 33.0871 13.8305 33.7164 14.5895C 34.3643 15.3484 34.7253 16.3758 34.7993 17.6716L 33.3555 18.1436C 33.2444 16.0333 32.4854 14.9782 31.0786 14.9782C 30.4492 14.9782 29.9494 15.154 29.5792 15.5058C 29.209 15.839 29.0238 16.311 29.0238 16.9219C 29.0238 17.4217 29.1164 17.8567 29.3015 18.2269C 29.4866 18.5971 29.8291 19.0044 30.3289 19.4486L 32.6058 21.4756C 33.4758 22.2531 34.1329 22.9843 34.5772 23.6692C 35.04 24.3356 35.2714 25.1593 35.2714 26.1404C 35.2714 27.3622 34.9011 28.3155 34.1607 29.0004C 33.4202 29.6668 32.4206 30 31.1619 30Z"/>
  <path fill="#ffffff" d="M 42.7762 29.9445C 41.684 29.9445 40.9251 29.6483 40.4993 29.0559C 40.0921 28.4451 39.8885 27.5658 39.8885 26.4181L 39.8885 15.0337L 37.917 15.0337L 37.917 13.7009L 39.8885 13.7009L 39.8885 8.73067L 41.9154 8.73067L 41.9154 13.7009L 44.581 13.7009L 44.581 15.0337L 41.9154 15.0337L 41.9154 26.2237C 41.9154 27.0382 42.008 27.6028 42.1931 27.9175C 42.3782 28.2137 42.7577 28.3618 43.3315 28.3618C 43.6832 28.3618 44.072 28.3155 44.4977 28.2229L 44.4977 29.7779C 43.9239 29.8889 43.35 29.9445 42.7762 29.9445Z"/>
  <path fill="#ffffff" d="M 50.9195 30C 49.9569 30 49.1794 29.6575 48.587 28.9726C 47.9947 28.2877 47.6985 27.4362 47.6985 26.4181C 47.6985 25.363 47.9021 24.4929 48.3094 23.808C 48.7351 23.1231 49.383 22.5122 50.253 21.9754C 51.1231 21.4386 52.4281 20.7814 54.1682 20.004L 54.1682 18.8655C 54.1682 17.8659 54.1034 17.0885 53.9738 16.5331C 53.8627 15.9778 53.6591 15.5798 53.3629 15.3392C 53.0853 15.0985 52.6873 14.9782 52.169 14.9782C 50.6696 14.9782 49.9198 15.8945 49.9198 17.7271L 49.9198 18.2824L 47.9206 18.2547C 47.9392 16.6072 48.2909 15.3947 48.9758 14.6172C 49.6607 13.8398 50.7621 13.451 52.28 13.451C 53.6869 13.451 54.6865 13.8768 55.2788 14.7283C 55.8897 15.5798 56.1951 16.9219 56.1951 18.7545L 56.1951 26.5569C 56.1951 27.0752 56.2044 27.6676 56.2229 28.334C 56.2599 29.0004 56.2969 29.4724 56.334 29.7501L 54.5291 29.7501L 54.2237 27.5288C 53.9831 28.2322 53.5665 28.8245 52.9742 29.3058C 52.4003 29.7686 51.7154 30 50.9195 30ZM 51.5581 28.2785C 52.1134 28.2785 52.6132 28.0933 53.0575 27.7231C 53.5203 27.3344 53.8905 26.8809 54.1682 26.3626L 54.1682 21.3645C 52.9094 22.0309 51.9931 22.5493 51.4193 22.9195C 50.8639 23.2897 50.4382 23.7062 50.142 24.169C 49.8643 24.6133 49.7255 25.1964 49.7255 25.9183C 49.7255 26.7143 49.8921 27.3066 50.2253 27.6954C 50.577 28.0841 51.0213 28.2785 51.5581 28.2785Z"/>
  <path fill="#ffffff" d="M 62.9275 30C 62.113 30 61.4929 29.7038 61.0671 29.1115C 60.6414 28.5191 60.4285 27.6768 60.4285 26.5847L 60.4285 13.7009L 62.4832 13.7009L 62.4832 26.1404C 62.4832 26.9549 62.6035 27.538 62.8442 27.8897C 63.1033 28.2229 63.4921 28.3895 64.0104 28.3895C 64.4732 28.3895 64.9452 28.2507 65.4265 27.973C 65.9263 27.6768 66.3983 27.2881 66.8426 26.8068L 66.8426 13.7009L 68.8696 13.7009L 68.8696 29.7501L 66.8426 29.7501L 66.8426 27.973C 66.3058 28.6024 65.7042 29.1022 65.0378 29.4724C 64.3714 29.8241 63.6679 30 62.9275 30Z"/>
  <path fill="#ffffff" d="M 73.5374 13.7009L 75.5922 13.7009L 75.5922 15.8945C 76.0734 15.0985 76.638 14.5062 77.2859 14.1174C 77.9523 13.7287 78.6187 13.5343 79.2851 13.5343C 79.4147 13.5343 79.535 13.5436 79.6461 13.5621L 79.6461 15.7279C 79.3129 15.6168 78.9797 15.5613 78.6465 15.5613C 77.3692 15.5613 76.3511 16.1814 75.5922 17.4217L 75.5922 29.7501L 73.5374 29.7501L 73.5374 13.7009Z"/>
  <path fill="#ffffff" d="M 85.7255 30C 84.7629 30 83.9855 29.6575 83.3931 28.9726C 82.8007 28.2877 82.5046 27.4362 82.5046 26.4181C 82.5046 25.363 82.7082 24.4929 83.1154 23.808C 83.5412 23.1231 84.1891 22.5122 85.0591 21.9754C 85.9291 21.4386 87.2342 20.7814 88.9742 20.004L 88.9742 18.8655C 88.9742 17.8659 88.9094 17.0885 88.7798 16.5331C 88.6688 15.9778 88.4652 15.5798 88.169 15.3392C 87.8913 15.0985 87.4933 14.9782 86.975 14.9782C 85.4756 14.9782 84.7259 15.8945 84.7259 17.7271L 84.7259 18.2824L 82.7267 18.2547C 82.7452 16.6072 83.0969 15.3947 83.7818 14.6172C 84.4667 13.8398 85.5682 13.451 87.0861 13.451C 88.4929 13.451 89.4925 13.8768 90.0849 14.7283C 90.6958 15.5798 91.0012 16.9219 91.0012 18.7545L 91.0012 26.5569C 91.0012 27.0752 91.0105 27.6676 91.029 28.334C 91.066 29.0004 91.103 29.4724 91.14 29.7501L 89.3352 29.7501L 89.0297 27.5288C 88.7891 28.2322 88.3726 28.8245 87.7803 29.3058C 87.2064 29.7686 86.5215 30 85.7255 30ZM 86.3641 28.2785C 86.9195 28.2785 87.4193 28.0933 87.8635 27.7231C 88.3263 27.3344 88.6965 26.8809 88.9742 26.3626L 88.9742 21.3645C 87.7155 22.0309 86.7992 22.5493 86.2253 22.9195C 85.67 23.2897 85.2442 23.7062 84.948 24.169C 84.6704 24.6133 84.5315 25.1964 84.5315 25.9183C 84.5315 26.7143 84.6981 27.3066 85.0313 27.6954C 85.383 28.0841 85.8273 28.2785 86.3641 28.2785Z"/>
  <path fill="#ffffff" d="M 95.3734 13.7009L 97.4003 13.7009L 97.4003 15.3669C 97.9372 14.7746 98.5295 14.3118 99.1774 13.9786C 99.8438 13.6269 100.538 13.451 101.26 13.451C 102.056 13.451 102.667 13.7472 103.093 14.3396C 103.518 14.9319 103.731 15.7742 103.731 16.8663L 103.731 29.7501L 101.704 29.7501L 101.704 17.3106C 101.704 16.4961 101.575 15.913 101.315 15.5613C 101.075 15.2096 100.695 15.0337 100.177 15.0337C 99.7328 15.0337 99.27 15.1726 98.7887 15.4502C 98.3074 15.7094 97.8446 16.0703 97.4003 16.5331L 97.4003 29.7501L 95.3734 29.7501L 95.3734 13.7009Z"/>
  <path fill="#ffffff" d="M 111.927 29.9445C 110.835 29.9445 110.076 29.6483 109.65 29.0559C 109.243 28.4451 109.04 27.5658 109.04 26.4181L 109.04 15.0337L 107.068 15.0337L 107.068 13.7009L 109.04 13.7009L 109.04 8.73067L 111.067 8.73067L 111.067 13.7009L 113.732 13.7009L 113.732 15.0337L 111.067 15.0337L 111.067 26.2237C 111.067 27.0382 111.159 27.6028 111.344 27.9175C 111.529 28.2137 111.909 28.3618 112.483 28.3618C 112.834 28.3618 113.223 28.3155 113.649 28.2229L 113.649 29.7779C 113.075 29.8889 112.501 29.9445 111.927 29.9445Z"/>
  <path fill="#ffffff" d="M 117.488 7.25903L 122.014 7.25903C 124.291 7.25903 125.957 7.73107 127.012 8.67513C 128.086 9.60069 128.623 11.1186 128.623 13.2289C 128.623 16.1166 127.697 17.8659 125.846 18.4768L 129.039 29.7501L 126.013 29.7501L 123.069 19.1987L 120.626 19.1987L 120.626 29.7501L 117.488 29.7501L 117.488 7.25903ZM 121.82 16.9496C 123.171 16.9496 124.134 16.6812 124.708 16.1444C 125.3 15.6076 125.596 14.6357 125.596 13.2289C 125.596 12.3033 125.494 11.5814 125.291 11.0631C 125.087 10.5263 124.726 10.1375 124.208 9.89687C 123.69 9.63772 122.958 9.50814 122.014 9.50814L 120.626 9.50814L 120.626 16.9496L 121.82 16.9496Z"/>
  <path fill="#ffffff" d="M 137.468 29.9722C 136.228 29.9722 135.265 29.7408 134.58 29.2781C 133.895 28.7968 133.414 28.0934 133.136 27.1678C 132.859 26.2422 132.72 25.039 132.72 23.5581L 132.72 19.8929C 132.72 17.6716 133.062 16.0518 133.747 15.0337C 134.451 13.9971 135.691 13.4788 137.468 13.4788C 138.764 13.4788 139.736 13.7472 140.383 14.284C 141.05 14.8208 141.485 15.5798 141.689 16.5609C 141.911 17.5235 142.022 18.8285 142.022 20.476L 142.022 21.781L 135.691 21.781L 135.691 25.002C 135.691 25.9831 135.83 26.6958 136.107 27.14C 136.404 27.5658 136.866 27.7787 137.496 27.7787C 138.125 27.7787 138.551 27.5658 138.773 27.14C 138.995 26.6958 139.106 26.0294 139.106 25.1408L 139.106 24.169L 141.994 24.169L 141.994 24.7799C 141.994 26.4644 141.633 27.7509 140.911 28.6394C 140.189 29.528 139.041 29.9722 137.468 29.9722ZM 139.106 20.1706L 139.106 18.7267C 139.106 17.6345 138.995 16.8571 138.773 16.3943C 138.569 15.913 138.125 15.6724 137.44 15.6724C 136.959 15.6724 136.589 15.7834 136.33 16.0056C 136.089 16.2277 135.922 16.5979 135.83 17.1162C 135.737 17.616 135.691 18.3472 135.691 19.3098L 135.691 20.1706L 139.106 20.1706Z"/>
  <path fill="#ffffff" d="M 145.018 13.7009L 148.017 13.7009L 149.988 26.6125L 151.987 13.7009L 154.875 13.7009L 151.821 29.7501L 148.183 29.7501L 145.018 13.7009Z"/>
  <path fill="#ffffff" d="M 158.367 8.2031L 161.338 8.2031L 161.338 11.313L 158.367 11.313L 158.367 8.2031ZM 158.367 13.7009L 161.338 13.7009L 161.338 29.7501L 158.367 29.7501L 158.367 13.7009Z"/>
  <path fill="#ffffff" d="M 170.349 29.9722C 169.109 29.9722 168.146 29.7408 167.461 29.2781C 166.776 28.7968 166.295 28.0934 166.017 27.1678C 165.74 26.2422 165.601 25.039 165.601 23.5581L 165.601 19.8929C 165.601 17.6716 165.943 16.0518 166.628 15.0337C 167.331 13.9971 168.572 13.4788 170.349 13.4788C 171.645 13.4788 172.616 13.7472 173.264 14.284C 173.931 14.8208 174.366 15.5798 174.569 16.5609C 174.791 17.5235 174.903 18.8285 174.903 20.476L 174.903 21.781L 168.572 21.781L 168.572 25.002C 168.572 25.9831 168.711 26.6958 168.988 27.14C 169.284 27.5658 169.747 27.7787 170.377 27.7787C 171.006 27.7787 171.432 27.5658 171.654 27.14C 171.876 26.6958 171.987 26.0294 171.987 25.1408L 171.987 24.169L 174.875 24.169L 174.875 24.7799C 174.875 26.4644 174.514 27.7509 173.792 28.6394C 173.07 29.528 171.922 29.9722 170.349 29.9722ZM 171.987 20.1706L 171.987 18.7267C 171.987 17.6345 171.876 16.8571 171.654 16.3943C 171.45 15.913 171.006 15.6724 170.321 15.6724C 169.84 15.6724 169.47 15.7834 169.21 16.0056C 168.97 16.2277 168.803 16.5979 168.711 17.1162C 168.618 17.616 168.572 18.3472 168.572 19.3098L 168.572 20.1706L 171.987 20.1706Z"/>
  <path fill="#ffffff" d="M 178.26 13.7009L 180.703 13.7009L 182.369 25.5296L 184.507 13.7009L 186.784 13.7009L 188.922 25.474L 190.588 13.7009L 193.031 13.7009L 190.366 29.7501L 187.867 29.7501L 185.673 18.4213L 183.507 29.7501L 180.842 29.7501L 178.26 13.7009Z"/>
  <path fill="#ffffff" d="M 200.414 29.9722C 199.119 29.9722 198.063 29.565 197.249 28.7505C 196.453 27.936 195.999 26.8438 195.888 25.474L 198.36 24.7243C 198.508 25.7609 198.758 26.5292 199.109 27.029C 199.48 27.5288 199.998 27.7787 200.664 27.7787C 201.183 27.7787 201.581 27.6306 201.858 27.3344C 202.154 27.0197 202.302 26.6032 202.302 26.0849C 202.302 25.6221 202.201 25.2056 201.997 24.8354C 201.793 24.4652 201.46 24.0857 200.997 23.6969L 198.249 21.3368C 197.619 20.8 197.129 20.2354 196.777 19.643C 196.444 19.0321 196.277 18.2917 196.277 17.4217C 196.277 16.1814 196.647 15.2188 197.388 14.5339C 198.128 13.8305 199.137 13.4788 200.414 13.4788C 201.636 13.4788 202.589 13.8768 203.274 14.6728C 203.978 15.4502 204.385 16.4591 204.496 17.6993L 202.497 18.449C 202.367 17.542 202.154 16.8571 201.858 16.3943C 201.562 15.913 201.118 15.6724 200.525 15.6724C 200.044 15.6724 199.655 15.8297 199.359 16.1444C 199.082 16.4591 198.943 16.8478 198.943 17.3106C 198.943 17.903 199.211 18.4398 199.748 18.9211L 202.58 21.5311C 203.302 22.1975 203.857 22.8547 204.246 23.5026C 204.653 24.1505 204.857 24.9372 204.857 25.8628C 204.857 27.1956 204.459 28.2137 203.663 28.9171C 202.867 29.6205 201.784 29.9722 200.414 29.9722Z"/>
</svg>
