<svg width="2850" height="800" viewBox="0 0 2850 800" version="1.1" xmlns="http://www.w3.org/2000/svg" xmlns:xlink="http://www.w3.org/1999/xlink">
<g id="Canvas" fill="none">
<g id="Map Placeholder" clip-path="url(#clip0)">
<rect width="2850" height="800" fill="#B2D9FC"/>
<g id="Land">
<path d="M 434.5 53L 461 0L 0 0L 0 801L 528 801L 544 774.5L 419.5 672L 427 655L 514.5 725L 560.5 655L 532 623L 454.5 583.5L 461 565.5L 551 614L 586 660.5L 619 614L 640 565.5L 646 527L 635 483L 635 430.5L 646 379L 662.5 311.5L 658 273L 626 258.5L 568.5 258.5L 532 267.5L 514.5 293.5L 490 319L 449 319L 412.5 306L 387 249.5L 382.5 204.5L 387 162.5L 393.5 119L 412.5 92.5L 434.5 53Z" transform="translate(0 -1)" fill="#E8E8E8"/>
<path d="M 449 40.5L 468.5 0L 701.5 0L 676 87L 577.5 72L 551 119L 586 119L 586 157L 640 143L 676 98.5L 695.5 104L 701.5 125L 662.5 143L 653 180.5L 670 180.5L 734.5 143L 734.5 186.5L 767.5 162.5L 786.5 162.5L 794 180.5L 819.5 211L 864 211L 905 204.5L 911.5 218.5L 893.5 241L 819.5 267.5L 786.5 299L 762 340.5L 762 379L 745 413.5L 712.5 423L 676 437L 662.5 413.5L 662.5 384L 670 340.5L 676 282L 653 249.5L 604 241L 546 249.5L 514.5 267.5L 505.5 293.5L 468.5 306L 439 308.5L 412.5 282L 393.5 224L 401 167.5L 401 125L 421 98.5L 449 40.5Z" transform="translate(0 -1)" fill="#E8E8E8"/>
<path d="M 779 34L 799 0L 819.5 0L 830 72L 815 96.5L 794 81.5L 779 34Z" transform="translate(0 -1)" fill="#E8E8E8"/>
<path d="M 852 53L 841.5 0L 1296 0L 1215.5 125L 1200.5 119L 1192.5 143L 1215.5 147.5L 1219 218.5L 1173 319L 1156 483L 1056.5 475L 1056.5 490L 1156 497L 1156 527L 1106.5 534.5L 1028 614L 1042 632L 1033.5 644.5L 976 603L 953 632L 939 695.5L 897.5 651L 883 660.5L 932.5 711L 905 757L 965.5 801L 905 801L 843.5 757L 830 757L 799 748.5L 794 764L 869 801L 611.5 801L 640 764L 653 757L 670 733.5L 658 725L 695.5 679.5L 689 660.5L 695.5 644.5L 712.5 639L 719.5 603L 767.5 534.5L 734.5 545L 734.5 504.5L 725 497L 734.5 475L 734.5 463L 779 430.5L 794 384L 794 340.5L 830 282L 869 267.5L 911.5 249.5L 919 204.5L 889.5 172L 819.5 186.5L 804.5 167.5L 815 125L 836 98.5L 852 53Z" transform="translate(0 -1)" fill="#E8E8E8"/>
<path d="M 1362 52L 1392.5 0L 1686 0L 1582 143L 1522 228L 1512.5 298L 1498.5 298L 1522 345.5L 1482.5 490L 1356.5 514L 1307 555.5L 1265.5 564L 1241 534.5L 1255 434.5L 1274 434.5L 1284.5 365.5L 1296 248L 1296 180.5L 1330 119L 1362 52Z" transform="translate(0 -1)" fill="#E8E8E8"/>
<path d="M 1577 180.5L 1698 12L 1698 37L 1577 194L 1577 180.5Z" transform="translate(0 -1)" fill="#E8E8E8"/>
<path d="M 1712.5 12L 1712.5 0L 2190.5 1L 2190.5 44.5L 2144.5 60L 2197.5 112.5L 2242 103L 2288 91L 2286 120L 2270 134.5L 2286 198.5L 2306 234.5C 2303 214 2297 167.8 2297 147C 2297 126.2 2312 125 2319.5 127L 2297 63L 2258 85.5L 2218.5 37L 2228.5 1L 2722 1L 2725.5 11L 2713 25.5L 2749 44.5L 2775 63L 2819 103L 2780 60L 2775 24L 2789 12.5L 2785 1L 2850 1L 2850 801L 1284.5 801L 1274 793L 1231.5 740L 1265.5 706L 1296 687L 1336.5 603L 1392.5 534.5L 1472 527L 1498.5 564L 1512.5 544L 1529.5 497L 1549.5 427.5L 1577 380.5L 1577 327.5L 1577 298L 1604.5 278L 1660.5 286.5L 1704 345.5L 1735 353L 1776 365.5L 1795 410L 1811 443L 1776 458C 1769 468.667 1755.6 490 1758 490C 1760.4 490 1781 470.667 1791 461L 1829 452.5L 1811 414.5C 1808.17 403.5 1802.1 380.3 1800.5 375.5C 1798.9 370.7 1786.5 358.5 1780.5 353C 1768.83 350.5 1743.4 345.5 1735 345.5C 1726.6 345.5 1716.5 333.5 1712.5 327.5L 1690.5 296L 1660.5 267L 1604.5 267L 1577 278L 1570.5 264L 1608.5 194L 1698 60.5L 1721 37L 1735 24.5L 1712.5 12Z" transform="translate(0 -1)" fill="#E8E8E8"/>
</g>
<g id="Greens">
<path d="M 1096 526.5L 1096 489L 989.5 489L 984 493.5L 976 493.5L 948 512L 960 526.5L 913 540L 955 561L 967 586L 989.5 605.5L 1045 533L 1057.5 533L 1096 526.5Z" transform="translate(63 0)" fill="#CDEABA"/>
<path d="M 797 341.5L 749.5 311L 731 341.5L 732 363.5L 729.5 387.5L 762.5 386L 788 393L 816.5 402L 836.5 393L 816.5 362.5L 863 334.5L 826 311L 797 341.5Z" transform="translate(63 0)" fill="#CDEABA"/>
<path d="M 826 100L 780 82.5L 750.5 136.5L 816.5 130L 826 100Z" transform="translate(63 0)" fill="#CDEABA"/>
<path d="M 1397.5 46.5L 1446 71L 1486.5 0L 1422.5 0L 1397.5 46.5Z" transform="translate(63 0)" fill="#CDEABA"/>
<path d="M 2237.5 540L 2237.5 512L 2190 501L 2074 540L 2032.5 586L 1996.5 639.5L 1971.5 623L 1971.5 595L 1947.5 586L 1927 623L 1851 626L 1830.5 693L 1864.5 728.5L 1934 710.5L 1985 661.5L 2022 661.5L 2048.5 626L 2088.5 586L 2140.5 586L 2237.5 540Z" transform="translate(63 0)" fill="#CDEABA"/>
<path d="M 2452.5 262L 2494.5 214.5L 2357.5 201L 2298 170L 2237.5 180.5L 2212 104.5L 2164.5 115L 2190 159.5L 2140.5 201L 2178 271L 2218 271L 2253.5 341.5L 2298 341.5L 2298 271L 2253.5 262L 2253.5 214.5L 2298 201L 2345.5 228L 2452.5 262Z" transform="translate(63 0)" fill="#CDEABA"/>
<path d="M 1830.5 248.5L 1774 241L 1757.5 293L 1717.5 293L 1643 284.5L 1675.5 344.5L 1736.5 362.5L 1830.5 334.5L 1851 293L 1830.5 284.5L 1830.5 248.5Z" transform="translate(63 0)" fill="#CDEABA"/>
<path d="M 2622 334.5C 2614.67 313.333 2599.4 265 2597 241L 2643 228L 2733.5 397L 2717 428.5L 2672.5 388.5L 2597 388.5L 2574.5 334.5L 2622 334.5Z" transform="translate(63 0)" fill="#CDEABA"/>
<path d="M 169.5 533L 138.5 489L 41.5 586L 0 598L 15 660L 61 660L 61 605.5L 138.5 598L 169.5 533Z" transform="translate(63 0)" fill="#CDEABA"/>
</g>
<g id="Main roads" filter="url(#filter0_d)">
<path d="M 24 45L 27.2349 41.1875L 26.929 40.9279L 26.5856 40.7204L 24 45ZM 43 60.5L 40.4275 64.7875L 43 60.5ZM 178.5 137L 181.168 132.771L 181.021 132.678L 180.868 132.596L 178.5 137ZM 211 157.5L 208.332 161.729L 208.836 162.046L 209.4 162.237L 211 157.5ZM 248 170L 246.4 174.737L 246.416 174.743L 246.433 174.748L 248 170ZM 351 204L 349.433 208.748L 350.196 209L 351 209L 351 204ZM 395.5 204L 398.679 200.14L 397.294 199L 395.5 199L 395.5 204ZM 438 239L 434.821 242.86L 435.898 243.746L 437.277 243.947L 438 239ZM 482.5 245.5L 481.777 250.447L 482.796 250.596L 483.79 250.331L 482.5 245.5ZM 570.5 222L 571.79 226.831L 573.087 226.484L 574.036 225.536L 570.5 222ZM 602.5 190L 606.036 193.536L 606.798 192.773L 607.178 191.764L 602.5 190ZM 614 159.5L 612.461 154.743L 610.171 155.484L 609.322 157.736L 614 159.5ZM 648 148.5L 648 143.5L 647.211 143.5L 646.461 143.743L 648 148.5ZM 682.5 112L 678.264 109.344L 678.143 109.537L 678.04 109.74L 682.5 112ZM 724.5 45L 720.29 42.3034L 720.276 42.3238L 720.264 42.3443L 724.5 45ZM 634.5 257L 629.682 255.662L 629.598 255.967L 629.552 256.28L 634.5 257ZM 590.5 366L 586.34 363.226L 586.054 363.655L 585.862 364.133L 590.5 366ZM 558.5 445.5L 561.2 449.708L 562.543 448.847L 563.138 447.367L 558.5 445.5ZM 505.5 479.5L 502.8 475.292L 502.311 475.605L 501.907 476.023L 505.5 479.5ZM 579.5 334L 577.38 329.472L 576.804 329.741L 576.314 330.147L 579.5 334ZM 475.5 420L 472.314 416.147L 471.645 416.7L 471.202 417.445L 475.5 420ZM 418 497L 418 502L 418.888 502L 419.721 501.694L 418 497ZM 304.5 497L 304.5 492L 304.104 492L 303.713 492.062L 304.5 497ZM 171 464.5L 173.372 460.099L 172.874 459.83L 172.328 459.68L 171 464.5ZM 87.5 441.5L 88.8278 436.68L 86.6264 436.073L 84.7265 437.34L 87.5 441.5ZM 30.5 479.5L 27.7265 475.34L 27.1551 475.721L 26.7075 476.242L 30.5 479.5ZM 270 562.5L 265.576 560.17L 265.153 560.973L 265.039 561.874L 270 562.5ZM 263 618L 265.774 622.16L 267.675 620.893L 267.961 618.626L 263 618ZM 236 636L 233.226 631.84L 231.317 633.112L 231.037 635.39L 236 636ZM 211 557.5L 206.939 554.583L 206.714 554.896L 206.54 555.239L 211 557.5ZM 156 666L 151.54 663.739L 151.512 663.795L 151.485 663.852L 156 666ZM 199 515L 198.097 510.082L 197.151 510.256L 196.337 510.768L 199 515ZM 123.5 562.5L 120.837 558.268L 120.362 558.567L 119.964 558.964L 123.5 562.5ZM 101 585L 102.306 589.826L 103.593 589.478L 104.536 588.536L 101 585ZM 58.5 596.5L 56.8465 601.219L 58.3095 601.731L 59.806 601.326L 58.5 596.5ZM 515 545.5L 511.684 549.242L 512.345 549.828L 513.167 550.152L 515 545.5ZM 753 650.5L 750.58 654.875L 750.63 654.903L 750.68 654.929L 753 650.5ZM 860 650.5L 861.603 655.236L 862.667 654.876L 863.475 654.095L 860 650.5ZM 875 636L 878.475 639.595L 878.669 639.408L 878.841 639.201L 875 636ZM 925 576L 921.929 572.054L 921.504 572.385L 921.159 572.799L 925 576ZM 1026.5 497L 1029.57 500.946L 1031.5 499.444L 1031.5 497L 1026.5 497ZM 1026.5 441.5L 1021.67 440.198L 1021.5 440.837L 1021.5 441.5L 1026.5 441.5ZM 1286.5 375.5L 1291.42 376.408L 1291.46 376.166L 1291.48 375.92L 1286.5 375.5ZM 1256.5 538L 1251.58 537.092L 1251.25 538.892L 1252.16 540.481L 1256.5 538ZM 1353 506L 1351.98 501.105L 1351 501.309L 1350.17 501.875L 1353 506ZM 1480.5 479.5L 1481.52 484.395L 1484.63 483.748L 1485.37 480.652L 1480.5 479.5ZM 1512 346.5L 1516.87 347.652L 1517.19 346.275L 1516.75 344.931L 1512 346.5ZM 1493 289L 1488.6 286.62L 1487.58 288.519L 1488.25 290.569L 1493 289ZM 1552 180L 1547.97 177.045L 1547.77 177.32L 1547.6 177.62L 1552 180ZM 1303 180L 1298.53 177.764L 1298.1 178.623L 1298.02 179.58L 1303 180ZM 1134 0.5L 1136.41 -3.88245L 1132.16 -6.21286L 1129.7 -2.04769L 1134 0.5ZM 759 551.5L 762.086 555.434L 763.104 554.635L 763.607 553.442L 759 551.5ZM 741.5 148.5L 740.633 143.576L 739.899 143.705L 739.234 144.043L 741.5 148.5ZM 875 125L 875.867 129.924L 877.372 129.659L 878.472 128.598L 875 125ZM 784 714.5L 788.096 717.367L 788.61 716.633L 788.837 715.767L 784 714.5ZM 1582 240L 1577.53 242.236L 1578.52 244.226L 1580.67 244.819L 1582 240ZM 1732 281.5L 1733.89 276.869L 1733.61 276.759L 1733.33 276.681L 1732 281.5ZM 1927 281.5L 1928.11 286.375L 1930.12 285.917L 1931.22 284.18L 1927 281.5ZM 1963.5 224L 1967.72 226.68L 1968.96 224.726L 1968.27 222.517L 1963.5 224ZM 1823.5 26L 1819.68 29.223L 1820.59 30.3021L 1821.93 30.7461L 1823.5 26ZM 2060 37.5L 2062.79 33.3484L 2061.25 32.3186L 2059.42 32.5341L 2060 37.5ZM 2207.5 136.5L 2212.2 134.781L 2211.64 133.255L 2210.29 132.348L 2207.5 136.5ZM 2115 316.5L 2113.4 311.762L 2113.21 311.828L 2113.02 311.91L 2115 316.5ZM 1978.5 375.5L 1977.35 380.366L 1978.96 380.748L 1980.48 380.09L 1978.5 375.5ZM 1856 346.5L 1853.2 350.642L 1853.96 351.155L 1854.85 351.366L 1856 346.5ZM 1742 389L 1743.4 393.801L 1744.98 393.34L 1745.98 392.024L 1742 389ZM 1659.5 413L 1658.1 408.199L 1656.56 408.649L 1655.56 409.919L 1659.5 413ZM 1602 486.5L 1598.06 483.419L 1597.52 484.107L 1597.25 484.938L 1602 486.5ZM 1564.5 600.5L 1564.5 605.5L 1568.12 605.5L 1569.25 602.062L 1564.5 600.5ZM 1462 600.5L 1458.56 604.125L 1460 605.5L 1462 605.5L 1462 600.5ZM 1422 562.5L 1425.44 558.875L 1423.82 557.335L 1421.59 557.517L 1422 562.5ZM 1373 566.5L 1372.59 561.517L 1368.91 561.818L 1368.12 565.432L 1373 566.5ZM 1353 658L 1357.76 659.535L 1357.83 659.304L 1357.88 659.068L 1353 658ZM 1328 735.5L 1323.26 737.077L 1323.39 737.475L 1323.58 737.846L 1328 735.5ZM 2272.5 334L 2267.65 335.23L 2267.92 336.272L 2268.59 337.113L 2272.5 334ZM 2263.5 506L 2265.03 510.76L 2265.52 510.603L 2265.97 510.349L 2263.5 506ZM 2207.5 524L 2205.97 519.24L 2204.93 519.575L 2204.12 520.314L 2207.5 524ZM 2177.5 551.5L 2177.5 556.5L 2179.44 556.5L 2180.88 555.186L 2177.5 551.5ZM 2130 551.5L 2130 546.5L 2127.02 546.5L 2125.6 549.121L 2130 551.5ZM 2103.5 600.5L 2106.68 604.359L 2107.43 603.738L 2107.9 602.879L 2103.5 600.5ZM 2295 147.5L 2290.03 148.067L 2290.08 148.45L 2290.18 148.822L 2295 147.5ZM 2381.5 250L 2379.21 254.446L 2380.05 254.877L 2380.99 254.974L 2381.5 250ZM 2566.5 269L 2565.99 273.974L 2567 274.077L 2567.96 273.781L 2566.5 269ZM 2675.5 449L 2677.13 453.725L 2677.88 453.467L 2678.51 452.993L 2675.5 449ZM 2403.83 543L 2399.22 544.951L 2399.22 544.951L 2403.83 543ZM 2550 433L 2550.43 437.982L 2551.16 437.918L 2551.85 437.645L 2550 433ZM 2660.5 389L 2659.9 384.036L 2659.26 384.113L 2658.65 384.355L 2660.5 389ZM 160 25L 155.048 24.3068L 155.024 24.4807L 155.012 24.656L 160 25ZM 157 68.5L 161.335 70.9914L 161.909 69.9929L 161.988 68.844L 157 68.5ZM 115 194L 119.848 195.224L 119.874 195.12L 119.896 195.015L 115 194ZM 102 245.5L 106.355 247.956L 106.684 247.373L 106.848 246.724L 102 245.5ZM 64.5 312L 68.6297 314.819L 68.7503 314.642L 68.8553 314.456L 64.5 312ZM -2.58558 34.7796L 21.4144 49.2796L 26.5856 40.7204L 2.58558 26.2204L -2.58558 34.7796ZM 20.7651 48.8125C 23.527 51.156 27.7963 54.7472 31.6328 57.9087C 33.5491 59.4878 35.3743 60.9736 36.8564 62.1476C 38.2116 63.221 39.588 64.2838 40.4275 64.7875L 45.5725 56.2125C 45.6 56.229 45.5517 56.2008 45.3961 56.0913C 45.2544 55.9914 45.068 55.8556 44.8346 55.6806C 44.3675 55.3304 43.771 54.8675 43.0654 54.3087C 41.6569 53.193 39.8884 51.7539 37.9922 50.1913C 34.2037 47.0694 29.973 43.5107 27.2349 41.1875L 20.7651 48.8125ZM 40.4275 64.7875C 41.1519 65.2221 41.8886 65.4546 42.3225 65.5783C 42.8311 65.7232 43.3689 65.8389 43.8857 65.9344C 44.9222 66.1258 46.1524 66.2861 47.4433 66.4246C 50.0387 66.703 53.2112 66.9273 56.2538 67.1155C 58.9415 67.2817 62.68 67.4844 64.5606 67.6C 65.6998 67.6699 66.6099 67.7328 67.2499 67.7904C 67.5763 67.8198 67.7703 67.8424 67.8632 67.8557C 67.913 67.8628 67.8739 67.8589 67.7818 67.8389C 67.7346 67.8286 67.632 67.8052 67.4962 67.7643C 67.3858 67.7311 67.1059 67.6431 66.7639 67.4721L 71.2361 58.5279C 70.6049 58.2123 70.0242 58.0928 69.9072 58.0673C 69.6712 58.016 69.4487 57.9807 69.2782 57.9563C 68.9304 57.9066 68.536 57.8658 68.1466 57.8307C 67.3549 57.7594 66.3237 57.6894 65.1738 57.6188C 62.4762 57.4531 60.246 57.3433 56.8712 57.1345C 53.8513 56.9477 50.8676 56.7345 48.5098 56.4816C 47.3242 56.3545 46.3786 56.2257 45.7022 56.1008C 45.3626 56.038 45.1597 55.9887 45.0635 55.9613C 44.8927 55.9126 45.1606 55.9654 45.5725 56.2125L 40.4275 64.7875ZM 66.7639 67.4721C 66.3027 67.2415 65.9851 66.9768 66.1591 67.1087C 66.1831 67.1269 66.2497 67.1788 66.373 67.2789C 66.6136 67.4742 66.9664 67.7687 67.4299 68.1618C 68.3511 68.9431 69.6293 70.046 71.1559 71.374C 74.2048 74.0262 78.1943 77.5326 82.1909 81.0608C 86.1861 84.5878 90.1808 88.13 93.2377 90.8516C 94.7667 92.2128 96.0578 93.3659 96.9958 94.208C 97.4655 94.6296 97.8417 94.9688 98.1129 95.2154C 98.4357 95.5087 98.5073 95.5783 98.4645 95.5355L 105.536 88.4645C 104.89 87.8192 96.6942 80.5253 88.8091 73.5642C 84.8057 70.0299 80.7952 66.505 77.7191 63.8292C 76.1832 62.4931 74.8676 61.3577 73.8982 60.5354C 73.4164 60.1268 72.9997 59.7782 72.6759 59.5153C 72.5169 59.3862 72.3526 59.2553 72.2005 59.14C 72.1985 59.1384 71.7598 58.7897 71.2361 58.5279L 66.7639 67.4721ZM 98.4645 95.5355C 98.833 95.9041 99.2892 96.233 99.3939 96.3102C 99.6319 96.4858 99.9262 96.6953 100.255 96.9253C 100.917 97.3887 101.809 97.999 102.863 98.7127C 104.977 100.143 107.811 102.035 110.911 104.091C 117.113 108.207 124.422 113.013 129.26 116.182L 134.74 107.818C 129.911 104.654 122.62 99.8598 116.439 95.7587C 113.347 93.707 110.544 91.8358 108.468 90.431C 107.428 89.727 106.587 89.1514 105.99 88.7333C 105.689 88.5225 105.472 88.3674 105.331 88.2635C 105.057 88.0613 105.267 88.1959 105.536 88.4645L 98.4645 95.5355ZM 129.632 116.404L 176.132 141.404L 180.868 132.596L 134.368 107.596L 129.632 116.404ZM 175.832 141.229L 208.332 161.729L 213.668 153.271L 181.168 132.771L 175.832 141.229ZM 209.4 162.237L 246.4 174.737L 249.6 165.263L 212.6 152.763L 209.4 162.237ZM 246.433 174.748L 349.433 208.748L 352.567 199.252L 249.567 165.252L 246.433 174.748ZM 351 209L 395.5 209L 395.5 199L 351 199L 351 209ZM 392.321 207.86L 434.821 242.86L 441.179 235.14L 398.679 200.14L 392.321 207.86ZM 437.277 243.947L 481.777 250.447L 483.223 240.553L 438.723 234.053L 437.277 243.947ZM 483.79 250.331L 571.79 226.831L 569.21 217.169L 481.21 240.669L 483.79 250.331ZM 574.036 225.536L 606.036 193.536L 598.964 186.464L 566.964 218.464L 574.036 225.536ZM 607.178 191.764L 618.678 161.264L 609.322 157.736L 597.822 188.236L 607.178 191.764ZM 615.539 164.257L 649.539 153.257L 646.461 143.743L 612.461 154.743L 615.539 164.257ZM 648 153.5L 664 153.5L 664 143.5L 648 143.5L 648 153.5ZM 668.46 150.76L 686.96 114.26L 678.04 109.74L 659.54 146.24L 668.46 150.76ZM 686.736 114.656L 728.736 47.6557L 720.264 42.3443L 678.264 109.344L 686.736 114.656ZM 728.71 47.6966L 757.21 3.19661L 748.79 -2.19661L 720.29 42.3034L 728.71 47.6966ZM 659.165 147.225L 647.165 192.725L 656.835 195.275L 668.835 149.775L 659.165 147.225ZM 647.182 192.662L 629.682 255.662L 639.318 258.338L 656.818 195.338L 647.182 192.662ZM 629.552 256.28L 621.552 311.28L 631.448 312.72L 639.448 257.72L 629.552 256.28ZM 622.34 309.226L 586.34 363.226L 594.66 368.774L 630.66 314.774L 622.34 309.226ZM 585.862 364.133L 553.862 443.633L 563.138 447.367L 595.138 367.867L 585.862 364.133ZM 555.8 441.292L 502.8 475.292L 508.2 483.708L 561.2 449.708L 555.8 441.292ZM 501.907 476.023L 471.907 507.023L 479.093 513.977L 509.093 482.977L 501.907 476.023ZM 471.045 508.23C 457.708 534.404 437.7 573.919 421.025 607.396C 412.688 624.131 405.175 639.376 399.742 650.696C 397.028 656.351 394.818 661.059 393.28 664.494C 392.514 666.205 391.893 667.651 391.454 668.761C 391.238 669.311 391.041 669.841 390.89 670.312C 390.815 670.55 390.5 671.485 390.5 672.5L 400.5 672.5C 400.5 673.265 400.29 673.752 400.417 673.352C 400.47 673.185 400.576 672.889 400.756 672.432C 401.113 671.529 401.663 670.243 402.407 668.58C 403.89 665.267 406.055 660.654 408.758 655.023C 414.158 643.77 421.645 628.577 429.975 611.854C 446.633 578.414 466.626 538.929 479.955 512.77L 471.045 508.23ZM 390.5 672.5C 390.5 671.678 390.739 671.153 390.64 671.43C 390.612 671.511 390.533 671.711 390.372 672.064C 390.055 672.759 389.55 673.765 388.845 675.088C 387.445 677.719 385.39 681.359 382.809 685.801C 377.656 694.672 370.506 706.574 362.542 719.649C 346.62 745.791 327.507 776.521 314.764 796.844L 323.236 802.156C 335.993 781.812 355.13 751.043 371.083 724.851C 379.057 711.759 386.25 699.786 391.456 690.824C 394.056 686.349 396.184 682.583 397.673 679.787C 398.412 678.397 399.028 677.183 399.47 676.213C 399.689 675.734 399.9 675.24 400.065 674.772C 400.162 674.5 400.5 673.572 400.5 672.5L 390.5 672.5ZM 624.38 307.472L 577.38 329.472L 581.62 338.528L 628.62 316.528L 624.38 307.472ZM 576.314 330.147L 472.314 416.147L 478.686 423.853L 582.686 337.853L 576.314 330.147ZM 471.202 417.445L 428.702 488.945L 437.298 494.055L 479.798 422.555L 471.202 417.445ZM 431.279 486.806L 416.279 492.306L 419.721 501.694L 434.721 496.194L 431.279 486.806ZM 418 492L 304.5 492L 304.5 502L 418 502L 418 492ZM 303.713 492.062L 247.213 501.062L 248.787 510.938L 305.287 501.938L 303.713 492.062ZM 250.372 501.599L 173.372 460.099L 168.628 468.901L 245.628 510.401L 250.372 501.599ZM 172.328 459.68L 88.8278 436.68L 86.1722 446.32L 169.672 469.32L 172.328 459.68ZM 84.7265 437.34L 27.7265 475.34L 33.2735 483.66L 90.2735 445.66L 84.7265 437.34ZM 26.7075 476.242L -3.79251 511.742L 3.79251 518.258L 34.2925 482.758L 26.7075 476.242ZM 430.959 496.065L 473.459 515.065L 477.541 505.935L 435.041 486.935L 430.959 496.065ZM 300.076 494.67L 265.576 560.17L 274.424 564.83L 308.924 499.33L 300.076 494.67ZM 265.039 561.874L 258.039 617.374L 267.961 618.626L 274.961 563.126L 265.039 561.874ZM 260.226 613.84L 233.226 631.84L 238.774 640.16L 265.774 622.16L 260.226 613.84ZM 231.037 635.39L 219.537 728.89L 229.463 730.11L 240.963 636.61L 231.037 635.39ZM 222.221 725.05L 201.721 735.55L 206.279 744.45L 226.779 733.95L 222.221 725.05ZM 220.568 732.589L 275.568 802.589L 283.432 796.411L 228.432 726.411L 220.568 732.589ZM 243.939 503.083L 206.939 554.583L 215.061 560.417L 252.061 508.917L 243.939 503.083ZM 206.54 555.239L 151.54 663.739L 160.46 668.261L 215.46 559.761L 206.54 555.239ZM 151.485 663.852L 87.9848 797.352L 97.0152 801.648L 160.515 668.148L 151.485 663.852ZM 247.097 501.082L 198.097 510.082L 199.903 519.918L 248.903 510.918L 247.097 501.082ZM 196.337 510.768L 120.837 558.268L 126.163 566.732L 201.663 519.232L 196.337 510.768ZM 119.964 558.964L 97.4645 581.464L 104.536 588.536L 127.036 566.036L 119.964 558.964ZM 99.694 580.174L 57.194 591.674L 59.806 601.326L 102.306 589.826L 99.694 580.174ZM 60.1535 591.781L 1.65355 571.281L -1.65355 580.719L 56.8465 601.219L 60.1535 591.781ZM 472.184 514.242L 511.684 549.242L 518.316 541.758L 478.816 506.758L 472.184 514.242ZM 513.167 550.152L 680.667 616.152L 684.333 606.848L 516.833 540.848L 513.167 550.152ZM 680.08 615.875L 750.58 654.875L 755.42 646.125L 684.92 607.125L 680.08 615.875ZM 750.68 654.929L 792.68 676.929L 797.32 668.071L 755.32 646.071L 750.68 654.929ZM 796.603 677.236L 861.603 655.236L 858.397 645.764L 793.397 667.764L 796.603 677.236ZM 863.475 654.095L 878.475 639.595L 871.525 632.405L 856.525 646.905L 863.475 654.095ZM 878.841 639.201L 928.841 579.201L 921.159 572.799L 871.159 632.799L 878.841 639.201ZM 928.071 579.946L 1029.57 500.946L 1023.43 493.054L 921.929 572.054L 928.071 579.946ZM 1031.5 497L 1031.5 441.5L 1021.5 441.5L 1021.5 497L 1031.5 497ZM 1031.33 442.802L 1060.33 335.302L 1050.67 332.698L 1021.67 440.198L 1031.33 442.802ZM 1054.62 338.921L 1285.62 380.421L 1287.38 370.579L 1056.38 329.079L 1054.62 338.921ZM 1281.58 374.592L 1251.58 537.092L 1261.42 538.908L 1291.42 376.408L 1281.58 374.592ZM 1252.16 540.481L 1266.16 564.981L 1274.84 560.019L 1260.84 535.519L 1252.16 540.481ZM 1273.33 566.625L 1355.83 510.125L 1350.17 501.875L 1267.67 558.375L 1273.33 566.625ZM 1354.02 510.895L 1481.52 484.395L 1479.48 474.605L 1351.98 501.105L 1354.02 510.895ZM 1485.37 480.652L 1516.87 347.652L 1507.13 345.348L 1475.63 478.348L 1485.37 480.652ZM 1516.75 344.931L 1497.75 287.431L 1488.25 290.569L 1507.25 348.069L 1516.75 344.931ZM 1497.4 291.38L 1556.4 182.38L 1547.6 177.62L 1488.6 286.62L 1497.4 291.38ZM 1556.03 182.955L 1687.53 3.45487L 1679.47 -2.45487L 1547.97 177.045L 1556.03 182.955ZM 1291.48 375.92L 1307.98 180.42L 1298.02 179.58L 1281.52 375.08L 1291.48 375.92ZM 1307.47 182.236L 1341.47 114.236L 1332.53 109.764L 1298.53 177.764L 1307.47 182.236ZM 1341.36 114.445L 1403.86 2.9448L 1395.14 -1.9448L 1332.64 109.555L 1341.36 114.445ZM 1380.56 132.208L 1339.56 107.708L 1334.44 116.292L 1375.44 140.792L 1380.56 132.208ZM 1339.41 107.618L 1136.41 -3.88245L 1131.59 4.88245L 1334.59 116.382L 1339.41 107.618ZM 1129.7 -2.04769L 970.698 266.452L 979.302 271.548L 1138.3 3.04769L 1129.7 -2.04769ZM 971.859 272.89L 1052.36 337.89L 1058.64 330.11L 978.141 265.11L 971.859 272.89ZM 974.388 264.038L 625.888 307.038L 627.112 316.962L 975.612 273.962L 974.388 264.038ZM 624.711 316.669L 825.711 393.669L 829.289 384.331L 628.289 307.331L 624.711 316.669ZM 830.655 392.879L 978.155 272.879L 971.845 265.121L 824.345 385.121L 830.655 392.879ZM 822.893 387.058L 754.393 549.558L 763.607 553.442L 832.107 390.942L 822.893 387.058ZM 755.914 547.566L 679.414 607.566L 685.586 615.434L 762.086 555.434L 755.914 547.566ZM 654.266 198.457L 743.766 152.957L 739.234 144.043L 649.734 189.543L 654.266 198.457ZM 742.367 153.424L 875.867 129.924L 874.133 120.076L 740.633 143.576L 742.367 153.424ZM 878.472 128.598L 1007.47 4.09773L 1000.53 -3.09773L 871.528 121.402L 878.472 128.598ZM 790.163 671.233L 779.163 713.233L 788.837 715.767L 799.837 673.767L 790.163 671.233ZM 779.904 711.633L 720.404 796.633L 728.596 802.367L 788.096 717.367L 779.904 711.633ZM 1547.53 182.236L 1577.53 242.236L 1586.47 237.764L 1556.47 177.764L 1547.53 182.236ZM 1580.67 244.819L 1730.67 286.319L 1733.33 276.681L 1583.33 235.181L 1580.67 244.819ZM 1730.11 286.131L 1800.11 314.631L 1803.89 305.369L 1733.89 276.869L 1730.11 286.131ZM 1803.11 314.875L 1928.11 286.375L 1925.89 276.625L 1800.89 305.125L 1803.11 314.875ZM 1931.22 284.18L 1967.72 226.68L 1959.28 221.32L 1922.78 278.82L 1931.22 284.18ZM 1968.27 222.517L 1915.77 53.5167L 1906.23 56.4833L 1958.73 225.483L 1968.27 222.517ZM 1912.57 50.2539L 1825.07 21.2539L 1821.93 30.7461L 1909.43 59.7461L 1912.57 50.2539ZM 1827.32 22.777L 1805.82 -2.72299L 1798.18 3.72299L 1819.68 29.223L 1827.32 22.777ZM 1911.58 59.9659L 2060.58 42.4659L 2059.42 32.5341L 1910.42 50.0341L 1911.58 59.9659ZM 2057.21 41.6516L 2204.71 140.652L 2210.29 132.348L 2062.79 33.3484L 2057.21 41.6516ZM 2202.8 138.219L 2251.3 270.719L 2260.7 267.281L 2212.2 134.781L 2202.8 138.219ZM 2254.4 264.262L 2113.4 311.762L 2116.6 321.238L 2257.6 273.738L 2254.4 264.262ZM 2113.02 311.91L 1976.52 370.91L 1980.48 380.09L 2116.98 321.09L 2113.02 311.91ZM 1979.65 370.634L 1857.15 341.634L 1854.85 351.366L 1977.35 380.366L 1979.65 370.634ZM 1858.8 342.358L 1804.8 305.858L 1799.2 314.142L 1853.2 350.642L 1858.8 342.358ZM 1798.02 306.976L 1738.02 385.976L 1745.98 392.024L 1805.98 313.024L 1798.02 306.976ZM 1740.6 384.199L 1658.1 408.199L 1660.9 417.801L 1743.4 393.801L 1740.6 384.199ZM 1655.56 409.919L 1598.06 483.419L 1605.94 489.581L 1663.44 416.081L 1655.56 409.919ZM 1597.25 484.938L 1559.75 598.938L 1569.25 602.062L 1606.75 488.062L 1597.25 484.938ZM 1564.5 595.5L 1462 595.5L 1462 605.5L 1564.5 605.5L 1564.5 595.5ZM 1465.44 596.875L 1425.44 558.875L 1418.56 566.125L 1458.56 604.125L 1465.44 596.875ZM 1421.59 557.517L 1372.59 561.517L 1373.41 571.483L 1422.41 567.483L 1421.59 557.517ZM 1368.12 565.432L 1348.12 656.932L 1357.88 659.068L 1377.88 567.568L 1368.12 565.432ZM 1348.24 656.465L 1323.24 733.965L 1332.76 737.035L 1357.76 659.535L 1348.24 656.465ZM 1323.58 737.846L 1357.58 801.846L 1366.42 797.154L 1332.42 733.154L 1323.58 737.846ZM 1265.76 564.077L 1323.26 737.077L 1332.74 733.923L 1275.24 560.923L 1265.76 564.077ZM 2251.15 270.23L 2267.65 335.23L 2277.35 332.77L 2260.85 267.77L 2251.15 270.23ZM 2268.59 337.113L 2360.09 452.113L 2367.91 445.887L 2276.41 330.887L 2268.59 337.113ZM 2361.53 444.651L 2261.03 501.651L 2265.97 510.349L 2366.47 453.349L 2361.53 444.651ZM 2261.97 501.24L 2205.97 519.24L 2209.03 528.76L 2265.03 510.76L 2261.97 501.24ZM 2204.12 520.314L 2174.12 547.814L 2180.88 555.186L 2210.88 527.686L 2204.12 520.314ZM 2177.5 546.5L 2130 546.5L 2130 556.5L 2177.5 556.5L 2177.5 546.5ZM 2125.6 549.121L 2099.1 598.121L 2107.9 602.879L 2134.4 553.879L 2125.6 549.121ZM 2100.32 596.641L 1952.82 718.141L 1959.18 725.859L 2106.68 604.359L 2100.32 596.641ZM 2259.81 107.239L 2289.81 71.9547L 2282.19 65.4771L 2252.19 100.761L 2259.81 107.239ZM 2289.81 71.9547L 2347.81 3.73878L 2340.19 -2.73878L 2282.19 65.4771L 2289.81 71.9547ZM 2281.03 69.2834L 2290.03 148.067L 2299.97 146.933L 2290.97 68.1484L 2281.03 69.2834ZM 2290.18 148.822L 2308.68 216.322L 2318.32 213.678L 2299.82 146.178L 2290.18 148.822ZM 2310.08 211.355L 2252.58 265.355L 2259.42 272.645L 2316.92 218.645L 2310.08 211.355ZM 2311.21 219.446L 2379.21 254.446L 2383.79 245.554L 2315.79 210.554L 2311.21 219.446ZM 2380.99 254.974L 2565.99 273.974L 2567.01 264.026L 2382.01 245.026L 2380.99 254.974ZM 2567.96 273.781L 2690.46 236.281L 2687.54 226.719L 2565.04 264.219L 2567.96 273.781ZM 2693.74 229.91L 2616.24 -1.09037L 2606.76 2.09037L 2684.26 233.09L 2693.74 229.91ZM 2684.68 234.019L 2768.68 378.019L 2777.32 372.981L 2693.32 228.981L 2684.68 234.019ZM 2775.36 379.908L 2852.86 338.408L 2848.14 329.592L 2770.64 371.092L 2775.36 379.908ZM 2769.99 371.507L 2672.49 445.007L 2678.51 452.993L 2776.01 379.493L 2769.99 371.507ZM 2359.4 450.951L 2399.22 544.951L 2408.43 541.049L 2368.6 447.049L 2359.4 450.951ZM 2399.22 544.951L 2507.9 801.451L 2517.1 797.549L 2408.43 541.049L 2399.22 544.951ZM 2673.87 444.275L 2402.19 538.275L 2405.46 547.725L 2677.13 453.725L 2673.87 444.275ZM 2364.43 453.982L 2550.43 437.982L 2549.57 428.018L 2363.57 444.018L 2364.43 453.982ZM 2551.85 437.645L 2662.35 393.645L 2658.65 384.355L 2548.15 428.355L 2551.85 437.645ZM 2661.1 393.964L 2773.6 380.464L 2772.4 370.536L 2659.9 384.036L 2661.1 393.964ZM 2691.12 236.029L 2846.12 163.529L 2841.88 154.471L 2686.88 226.971L 2691.12 236.029ZM 158.548 -0.693239L 155.048 24.3068L 164.952 25.6932L 168.452 0.693239L 158.548 -0.693239ZM 155.012 24.656L 152.012 68.156L 161.988 68.844L 164.988 25.344L 155.012 24.656ZM 152.665 66.0086L 127.665 109.509L 136.335 114.491L 161.335 70.9914L 152.665 66.0086ZM 119.896 195.015L 136.896 113.015L 127.104 110.985L 110.104 192.985L 119.896 195.015ZM 110.152 192.776L 97.1521 244.276L 106.848 246.724L 119.848 195.224L 110.152 192.776ZM 97.6447 243.044L 60.1447 309.544L 68.8553 314.456L 106.355 247.956L 97.6447 243.044ZM 60.3703 309.181L -4.12975 403.681L 4.12975 409.319L 68.6297 314.819L 60.3703 309.181Z" fill="#FDEBAB"/>
</g>
</g>
</g>
<defs>
<filter id="filter0_d" x="-9.12976" y="-10.2129" width="2866.99" height="818.802" filterUnits="userSpaceOnUse" color-interpolation-filters="sRGB">
<feFlood flood-opacity="0" result="BackgroundImageFix"/>
<feColorMatrix in="SourceAlpha" type="matrix" values="0 0 0 0 0 0 0 0 0 0 0 0 0 0 0 0 0 0 255 0"/>
<feOffset dy="1"/>
<feGaussianBlur stdDeviation="2.5"/>
<feColorMatrix type="matrix" values="0 0 0 0 0 0 0 0 0 0 0 0 0 0 0 0 0 0 0.1 0"/>
<feBlend mode="normal" in2="BackgroundImageFix" result="effect1_dropShadow"/>
<feBlend mode="normal" in="SourceGraphic" in2="effect1_dropShadow" result="shape"/>
</filter>

<clipPath id="clip0">
<rect width="2850" height="800" fill="white"/>
</clipPath>

</defs>
</svg>

