<svg width="800" height="600" viewBox="0 0 800 600" version="1.1" xmlns="http://www.w3.org/2000/svg" xmlns:xlink="http://www.w3.org/1999/xlink">
<g id="Canvas" transform="translate(450 -697)">
<clipPath id="clip-0" clip-rule="evenodd">
<path d="M -450 697L 350 697L 350 1297L -450 1297L -450 697Z" fill="#FFFFFF"/>
</clipPath>
<g id="No connection" clip-path="url(#clip-0)">
<path d="M -450 697L 350 697L 350 1297L -450 1297L -450 697Z" fill="#ECF0F3"/>
<g id="Group">
<g id="Vector">
<use xlink:href="#path0_fill" transform="translate(-166 795)" fill="#60676E"/>
</g>
<g id="Connection issues">
<use xlink:href="#path1_fill" transform="translate(-276 1030.17)" fill="#60676E"/>
</g>
</g>
</g>
</g>
<defs>
<path id="path0_fill" d="M 232 55.1565C 227.515 51.7836 182.869 15.4756 116 15.4756C 101.052 15.4756 87.1993 17.3604 74.6426 20.2373L 177.588 122.614L 232 55.1565ZM 166.227 136.701L 29 5.67641e-07L 16.3436 12.6979L 36.7732 33.1336C 15.4467 42.8554 2.2921 53.3709 1.4256e-07 55.1565L 115.9 198.901L 116 199L 116.1 198.901L 154.966 150.688L 188.052 183.624L 200.708 171.025L 166.227 136.701L 166.227 136.701Z"/>
<path id="path1_fill" d="M 45.1562 49.9492C 44.7578 55.457 42.7188 59.793 39.0391 62.957C 35.3828 66.1211 30.5547 67.7031 24.5547 67.7031C 17.9922 67.7031 12.8242 65.5 9.05078 61.0938C 5.30078 56.6641 3.42578 50.5938 3.42578 42.8828L 3.42578 39.7539C 3.42578 34.832 4.29297 30.4961 6.02734 26.7461C 7.76172 22.9961 10.2344 20.125 13.4453 18.1328C 16.6797 16.1172 20.4297 15.1094 24.6953 15.1094C 30.6016 15.1094 35.3594 16.6914 38.9688 19.8555C 42.5781 23.0195 44.6641 27.4609 45.2266 33.1797L 34.6797 33.1797C 34.4219 29.875 33.4961 27.4844 31.9023 26.0078C 30.332 24.5078 27.9297 23.7578 24.6953 23.7578C 21.1797 23.7578 18.543 25.0234 16.7852 27.5547C 15.0508 30.0625 14.1602 33.9648 14.1133 39.2617L 14.1133 43.1289C 14.1133 48.6602 14.9453 52.7031 16.6094 55.2578C 18.2969 57.8125 20.9453 59.0898 24.5547 59.0898C 27.8125 59.0898 30.2383 58.3516 31.832 56.875C 33.4492 55.375 34.375 53.0664 34.6094 49.9492L 45.1562 49.9492ZM 94.1289 42.5664C 94.1289 47.6055 93.2383 52.0234 91.457 55.8203C 89.6758 59.6172 87.1211 62.5469 83.793 64.6094C 80.4883 66.6719 76.6914 67.7031 72.4023 67.7031C 68.1602 67.7031 64.375 66.6836 61.0469 64.6445C 57.7188 62.6055 55.1406 59.6992 53.3125 55.9258C 51.4844 52.1289 50.5586 47.7695 50.5352 42.8477L 50.5352 40.3164C 50.5352 35.2773 51.4375 30.8477 53.2422 27.0273C 55.0703 23.1836 57.6367 20.2422 60.9414 18.2031C 64.2695 16.1406 68.0664 15.1094 72.332 15.1094C 76.5977 15.1094 80.3828 16.1406 83.6875 18.2031C 87.0156 20.2422 89.582 23.1836 91.3867 27.0273C 93.2148 30.8477 94.1289 35.2656 94.1289 40.2812L 94.1289 42.5664ZM 83.4414 40.2461C 83.4414 34.8789 82.4805 30.8008 80.5586 28.0117C 78.6367 25.2227 75.8945 23.8281 72.332 23.8281C 68.793 23.8281 66.0625 25.2109 64.1406 27.9766C 62.2188 30.7188 61.2461 34.75 61.2227 40.0703L 61.2227 42.5664C 61.2227 47.793 62.1836 51.8477 64.1055 54.7305C 66.0273 57.6133 68.793 59.0547 72.4023 59.0547C 75.9414 59.0547 78.6602 57.6719 80.5586 54.9062C 82.457 52.1172 83.418 48.0625 83.4414 42.7422L 83.4414 40.2461ZM 143.418 67L 132.871 67L 112.34 33.3203L 112.34 67L 101.793 67L 101.793 15.8125L 112.34 15.8125L 132.906 49.5625L 132.906 15.8125L 143.418 15.8125L 143.418 67ZM 194.254 67L 183.707 67L 163.176 33.3203L 163.176 67L 152.629 67L 152.629 15.8125L 163.176 15.8125L 183.742 49.5625L 183.742 15.8125L 194.254 15.8125L 194.254 67ZM 234.262 44.8164L 214.012 44.8164L 214.012 58.5273L 237.777 58.5273L 237.777 67L 203.465 67L 203.465 15.8125L 237.707 15.8125L 237.707 24.3555L 214.012 24.3555L 214.012 36.5547L 234.262 36.5547L 234.262 44.8164ZM 284.148 49.9492C 283.75 55.457 281.711 59.793 278.031 62.957C 274.375 66.1211 269.547 67.7031 263.547 67.7031C 256.984 67.7031 251.816 65.5 248.043 61.0938C 244.293 56.6641 242.418 50.5938 242.418 42.8828L 242.418 39.7539C 242.418 34.832 243.285 30.4961 245.02 26.7461C 246.754 22.9961 249.227 20.125 252.438 18.1328C 255.672 16.1172 259.422 15.1094 263.688 15.1094C 269.594 15.1094 274.352 16.6914 277.961 19.8555C 281.57 23.0195 283.656 27.4609 284.219 33.1797L 273.672 33.1797C 273.414 29.875 272.488 27.4844 270.895 26.0078C 269.324 24.5078 266.922 23.7578 263.688 23.7578C 260.172 23.7578 257.535 25.0234 255.777 27.5547C 254.043 30.0625 253.152 33.9648 253.105 39.2617L 253.105 43.1289C 253.105 48.6602 253.938 52.7031 255.602 55.2578C 257.289 57.8125 259.938 59.0898 263.547 59.0898C 266.805 59.0898 269.23 58.3516 270.824 56.875C 272.441 55.375 273.367 53.0664 273.602 49.9492L 284.148 49.9492ZM 328.551 24.3555L 312.871 24.3555L 312.871 67L 302.324 67L 302.324 24.3555L 286.855 24.3555L 286.855 15.8125L 328.551 15.8125L 328.551 24.3555ZM 345.812 67L 335.266 67L 335.266 15.8125L 345.812 15.8125L 345.812 67ZM 397.668 42.5664C 397.668 47.6055 396.777 52.0234 394.996 55.8203C 393.215 59.6172 390.66 62.5469 387.332 64.6094C 384.027 66.6719 380.23 67.7031 375.941 67.7031C 371.699 67.7031 367.914 66.6836 364.586 64.6445C 361.258 62.6055 358.68 59.6992 356.852 55.9258C 355.023 52.1289 354.098 47.7695 354.074 42.8477L 354.074 40.3164C 354.074 35.2773 354.977 30.8477 356.781 27.0273C 358.609 23.1836 361.176 20.2422 364.48 18.2031C 367.809 16.1406 371.605 15.1094 375.871 15.1094C 380.137 15.1094 383.922 16.1406 387.227 18.2031C 390.555 20.2422 393.121 23.1836 394.926 27.0273C 396.754 30.8477 397.668 35.2656 397.668 40.2812L 397.668 42.5664ZM 386.98 40.2461C 386.98 34.8789 386.02 30.8008 384.098 28.0117C 382.176 25.2227 379.434 23.8281 375.871 23.8281C 372.332 23.8281 369.602 25.2109 367.68 27.9766C 365.758 30.7188 364.785 34.75 364.762 40.0703L 364.762 42.5664C 364.762 47.793 365.723 51.8477 367.645 54.7305C 369.566 57.6133 372.332 59.0547 375.941 59.0547C 379.48 59.0547 382.199 57.6719 384.098 54.9062C 385.996 52.1172 386.957 48.0625 386.98 42.7422L 386.98 40.2461ZM 446.957 67L 436.41 67L 415.879 33.3203L 415.879 67L 405.332 67L 405.332 15.8125L 415.879 15.8125L 436.445 49.5625L 436.445 15.8125L 446.957 15.8125L 446.957 67ZM 120.883 151L 110.336 151L 110.336 99.8125L 120.883 99.8125L 120.883 151ZM 157.234 137.57C 157.234 135.578 156.531 134.055 155.125 133C 153.719 131.922 151.188 130.797 147.531 129.625C 143.875 128.43 140.98 127.258 138.848 126.109C 133.035 122.969 130.129 118.738 130.129 113.418C 130.129 110.652 130.902 108.191 132.449 106.035C 134.02 103.855 136.258 102.156 139.164 100.938C 142.094 99.7188 145.375 99.1094 149.008 99.1094C 152.664 99.1094 155.922 99.7773 158.781 101.113C 161.641 102.426 163.855 104.289 165.426 106.703C 167.02 109.117 167.816 111.859 167.816 114.93L 157.27 114.93C 157.27 112.586 156.531 110.77 155.055 109.48C 153.578 108.168 151.504 107.512 148.832 107.512C 146.254 107.512 144.25 108.062 142.82 109.164C 141.391 110.242 140.676 111.672 140.676 113.453C 140.676 115.117 141.508 116.512 143.172 117.637C 144.859 118.762 147.332 119.816 150.59 120.801C 156.59 122.605 160.961 124.844 163.703 127.516C 166.445 130.188 167.816 133.516 167.816 137.5C 167.816 141.93 166.141 145.41 162.789 147.941C 159.438 150.449 154.926 151.703 149.254 151.703C 145.316 151.703 141.73 150.988 138.496 149.559C 135.262 148.105 132.789 146.125 131.078 143.617C 129.391 141.109 128.547 138.203 128.547 134.898L 139.129 134.898C 139.129 140.547 142.504 143.371 149.254 143.371C 151.762 143.371 153.719 142.867 155.125 141.859C 156.531 140.828 157.234 139.398 157.234 137.57ZM 201.531 137.57C 201.531 135.578 200.828 134.055 199.422 133C 198.016 131.922 195.484 130.797 191.828 129.625C 188.172 128.43 185.277 127.258 183.145 126.109C 177.332 122.969 174.426 118.738 174.426 113.418C 174.426 110.652 175.199 108.191 176.746 106.035C 178.316 103.855 180.555 102.156 183.461 100.938C 186.391 99.7188 189.672 99.1094 193.305 99.1094C 196.961 99.1094 200.219 99.7773 203.078 101.113C 205.938 102.426 208.152 104.289 209.723 106.703C 211.316 109.117 212.113 111.859 212.113 114.93L 201.566 114.93C 201.566 112.586 200.828 110.77 199.352 109.48C 197.875 108.168 195.801 107.512 193.129 107.512C 190.551 107.512 188.547 108.062 187.117 109.164C 185.688 110.242 184.973 111.672 184.973 113.453C 184.973 115.117 185.805 116.512 187.469 117.637C 189.156 118.762 191.629 119.816 194.887 120.801C 200.887 122.605 205.258 124.844 208 127.516C 210.742 130.188 212.113 133.516 212.113 137.5C 212.113 141.93 210.438 145.41 207.086 147.941C 203.734 150.449 199.223 151.703 193.551 151.703C 189.613 151.703 186.027 150.988 182.793 149.559C 179.559 148.105 177.086 146.125 175.375 143.617C 173.688 141.109 172.844 138.203 172.844 134.898L 183.426 134.898C 183.426 140.547 186.801 143.371 193.551 143.371C 196.059 143.371 198.016 142.867 199.422 141.859C 200.828 140.828 201.531 139.398 201.531 137.57ZM 258.027 99.8125L 258.027 133.527C 258.027 139.129 256.27 143.559 252.754 146.816C 249.262 150.074 244.48 151.703 238.41 151.703C 232.434 151.703 227.688 150.121 224.172 146.957C 220.656 143.793 218.863 139.445 218.793 133.914L 218.793 99.8125L 229.34 99.8125L 229.34 133.598C 229.34 136.949 230.137 139.398 231.73 140.945C 233.348 142.469 235.574 143.23 238.41 143.23C 244.34 143.23 247.352 140.113 247.445 133.879L 247.445 99.8125L 258.027 99.8125ZM 297.473 128.816L 277.223 128.816L 277.223 142.527L 300.988 142.527L 300.988 151L 266.676 151L 266.676 99.8125L 300.918 99.8125L 300.918 108.355L 277.223 108.355L 277.223 120.555L 297.473 120.555L 297.473 128.816ZM 333.719 137.57C 333.719 135.578 333.016 134.055 331.609 133C 330.203 131.922 327.672 130.797 324.016 129.625C 320.359 128.43 317.465 127.258 315.332 126.109C 309.52 122.969 306.613 118.738 306.613 113.418C 306.613 110.652 307.387 108.191 308.934 106.035C 310.504 103.855 312.742 102.156 315.648 100.938C 318.578 99.7188 321.859 99.1094 325.492 99.1094C 329.148 99.1094 332.406 99.7773 335.266 101.113C 338.125 102.426 340.34 104.289 341.91 106.703C 343.504 109.117 344.301 111.859 344.301 114.93L 333.754 114.93C 333.754 112.586 333.016 110.77 331.539 109.48C 330.062 108.168 327.988 107.512 325.316 107.512C 322.738 107.512 320.734 108.062 319.305 109.164C 317.875 110.242 317.16 111.672 317.16 113.453C 317.16 115.117 317.992 116.512 319.656 117.637C 321.344 118.762 323.816 119.816 327.074 120.801C 333.074 122.605 337.445 124.844 340.188 127.516C 342.93 130.188 344.301 133.516 344.301 137.5C 344.301 141.93 342.625 145.41 339.273 147.941C 335.922 150.449 331.41 151.703 325.738 151.703C 321.801 151.703 318.215 150.988 314.98 149.559C 311.746 148.105 309.273 146.125 307.562 143.617C 305.875 141.109 305.031 138.203 305.031 134.898L 315.613 134.898C 315.613 140.547 318.988 143.371 325.738 143.371C 328.246 143.371 330.203 142.867 331.609 141.859C 333.016 140.828 333.719 139.398 333.719 137.57Z"/>
</defs>
</svg>
