<svg width="800" height="600" viewBox="0 0 800 600" version="1.1" xmlns="http://www.w3.org/2000/svg" xmlns:xlink="http://www.w3.org/1999/xlink">
<g id="Canvas" transform="translate(450 -23)">
<clipPath id="clip-0" clip-rule="evenodd">
<path d="M -450 23L 350 23L 350 623L -450 623L -450 23Z" fill="#FFFFFF"/>
</clipPath>
<g id="No Photo" clip-path="url(#clip-0)">
<path d="M -450 23L 350 23L 350 623L -450 623L -450 23Z" fill="#ECF0F3"/>
<g id="Group">
<g id="Vector">
<use xlink:href="#path0_fill" transform="translate(-153.167 166)" fill="#60676E"/>
<use xlink:href="#path1_fill" transform="translate(-153.167 166)" fill="#60676E"/>
</g>
<g id="No Photo">
<use xlink:href="#path2_fill" transform="translate(-228 395.167)" fill="#60676E"/>
</g>
</g>
</g>
</g>
<defs>
<path id="path0_fill" d="M 72.9167 0L 53.8542 20.8333L 20.8333 20.8333C 9.375 20.8333 0 30.2083 0 41.6667L 0 166.667C 0 178.125 9.375 187.5 20.8333 187.5L 187.5 187.5C 198.958 187.5 208.333 178.125 208.333 166.667L 208.333 41.6667C 208.333 30.2083 198.958 20.8333 187.5 20.8333L 154.479 20.8333L 135.417 0L 72.9167 0ZM 104.167 156.25C 75.4167 156.25 52.0833 132.917 52.0833 104.167C 52.0833 75.4167 75.4167 52.0833 104.167 52.0833C 132.917 52.0833 156.25 75.4167 156.25 104.167C 156.25 132.917 132.917 156.25 104.167 156.25Z"/>
<path id="path1_fill" d="M 104.167 137.5C 122.576 137.5 137.5 122.576 137.5 104.167C 137.5 85.7571 122.576 70.8332 104.167 70.8332C 85.7572 70.8332 70.8334 85.7571 70.8334 104.167C 70.8334 122.576 85.7572 137.5 104.167 137.5Z"/>
<path id="path2_fill" d="M 46.2695 67L 35.7227 67L 15.1914 33.3203L 15.1914 67L 4.64453 67L 4.64453 15.8125L 15.1914 15.8125L 35.7578 49.5625L 35.7578 15.8125L 46.2695 15.8125L 46.2695 67ZM 97.5273 42.5664C 97.5273 47.6055 96.6367 52.0234 94.8555 55.8203C 93.0742 59.6172 90.5195 62.5469 87.1914 64.6094C 83.8867 66.6719 80.0898 67.7031 75.8008 67.7031C 71.5586 67.7031 67.7734 66.6836 64.4453 64.6445C 61.1172 62.6055 58.5391 59.6992 56.7109 55.9258C 54.8828 52.1289 53.957 47.7695 53.9336 42.8477L 53.9336 40.3164C 53.9336 35.2773 54.8359 30.8477 56.6406 27.0273C 58.4688 23.1836 61.0352 20.2422 64.3398 18.2031C 67.668 16.1406 71.4648 15.1094 75.7305 15.1094C 79.9961 15.1094 83.7812 16.1406 87.0859 18.2031C 90.4141 20.2422 92.9805 23.1836 94.7852 27.0273C 96.6133 30.8477 97.5273 35.2656 97.5273 40.2812L 97.5273 42.5664ZM 86.8398 40.2461C 86.8398 34.8789 85.8789 30.8008 83.957 28.0117C 82.0352 25.2227 79.293 23.8281 75.7305 23.8281C 72.1914 23.8281 69.4609 25.2109 67.5391 27.9766C 65.6172 30.7188 64.6445 34.75 64.6211 40.0703L 64.6211 42.5664C 64.6211 47.793 65.582 51.8477 67.5039 54.7305C 69.4258 57.6133 72.1914 59.0547 75.8008 59.0547C 79.3398 59.0547 82.0586 57.6719 83.957 54.9062C 85.8555 52.1172 86.8164 48.0625 86.8398 42.7422L 86.8398 40.2461ZM 133.668 48.9648L 133.668 67L 123.121 67L 123.121 15.8125L 143.09 15.8125C 146.934 15.8125 150.309 16.5156 153.215 17.9219C 156.145 19.3281 158.395 21.332 159.965 23.9336C 161.535 26.5117 162.32 29.4531 162.32 32.7578C 162.32 37.7734 160.598 41.7344 157.152 44.6406C 153.73 47.5234 148.984 48.9648 142.914 48.9648L 133.668 48.9648ZM 133.668 40.4219L 143.09 40.4219C 145.879 40.4219 148 39.7656 149.453 38.4531C 150.93 37.1406 151.668 35.2656 151.668 32.8281C 151.668 30.3203 150.93 28.293 149.453 26.7461C 147.977 25.1992 145.938 24.4023 143.336 24.3555L 133.668 24.3555L 133.668 40.4219ZM 211.258 67L 200.711 67L 200.711 45.0625L 180.145 45.0625L 180.145 67L 169.598 67L 169.598 15.8125L 180.145 15.8125L 180.145 36.5547L 200.711 36.5547L 200.711 15.8125L 211.258 15.8125L 211.258 67ZM 262.551 42.5664C 262.551 47.6055 261.66 52.0234 259.879 55.8203C 258.098 59.6172 255.543 62.5469 252.215 64.6094C 248.91 66.6719 245.113 67.7031 240.824 67.7031C 236.582 67.7031 232.797 66.6836 229.469 64.6445C 226.141 62.6055 223.562 59.6992 221.734 55.9258C 219.906 52.1289 218.98 47.7695 218.957 42.8477L 218.957 40.3164C 218.957 35.2773 219.859 30.8477 221.664 27.0273C 223.492 23.1836 226.059 20.2422 229.363 18.2031C 232.691 16.1406 236.488 15.1094 240.754 15.1094C 245.02 15.1094 248.805 16.1406 252.109 18.2031C 255.438 20.2422 258.004 23.1836 259.809 27.0273C 261.637 30.8477 262.551 35.2656 262.551 40.2812L 262.551 42.5664ZM 251.863 40.2461C 251.863 34.8789 250.902 30.8008 248.98 28.0117C 247.059 25.2227 244.316 23.8281 240.754 23.8281C 237.215 23.8281 234.484 25.2109 232.562 27.9766C 230.641 30.7188 229.668 34.75 229.645 40.0703L 229.645 42.5664C 229.645 47.793 230.605 51.8477 232.527 54.7305C 234.449 57.6133 237.215 59.0547 240.824 59.0547C 244.363 59.0547 247.082 57.6719 248.98 54.9062C 250.879 52.1172 251.84 48.0625 251.863 42.7422L 251.863 40.2461ZM 305.723 24.3555L 290.043 24.3555L 290.043 67L 279.496 67L 279.496 24.3555L 264.027 24.3555L 264.027 15.8125L 305.723 15.8125L 305.723 24.3555ZM 352.832 42.5664C 352.832 47.6055 351.941 52.0234 350.16 55.8203C 348.379 59.6172 345.824 62.5469 342.496 64.6094C 339.191 66.6719 335.395 67.7031 331.105 67.7031C 326.863 67.7031 323.078 66.6836 319.75 64.6445C 316.422 62.6055 313.844 59.6992 312.016 55.9258C 310.188 52.1289 309.262 47.7695 309.238 42.8477L 309.238 40.3164C 309.238 35.2773 310.141 30.8477 311.945 27.0273C 313.773 23.1836 316.34 20.2422 319.645 18.2031C 322.973 16.1406 326.77 15.1094 331.035 15.1094C 335.301 15.1094 339.086 16.1406 342.391 18.2031C 345.719 20.2422 348.285 23.1836 350.09 27.0273C 351.918 30.8477 352.832 35.2656 352.832 40.2812L 352.832 42.5664ZM 342.145 40.2461C 342.145 34.8789 341.184 30.8008 339.262 28.0117C 337.34 25.2227 334.598 23.8281 331.035 23.8281C 327.496 23.8281 324.766 25.2109 322.844 27.9766C 320.922 30.7188 319.949 34.75 319.926 40.0703L 319.926 42.5664C 319.926 47.793 320.887 51.8477 322.809 54.7305C 324.73 57.6133 327.496 59.0547 331.105 59.0547C 334.645 59.0547 337.363 57.6719 339.262 54.9062C 341.16 52.1172 342.121 48.0625 342.145 42.7422L 342.145 40.2461Z"/>
</defs>
</svg>
