<svg width="72" height="72" viewBox="0 0 72 72" version="1.1" xmlns="http://www.w3.org/2000/svg" xmlns:xlink="http://www.w3.org/1999/xlink">
<title>Touch</title>
<desc>Created using Figma</desc>
<g id="Canvas" transform="translate(-419 369)">
<clipPath id="clip-0" clip-rule="evenodd">
<path d="M 419 -369L 491 -369L 491 -297L 419 -297L 419 -369Z" fill="#FFFFFF"/>
</clipPath>
<g id="Touch" clip-path="url(#clip-0)">
<g id="Vector">
<use xlink:href="#path0_fill" transform="translate(423 -365)" fill="#545454"/>
</g>
</g>
</g>
<defs>
<path id="path0_fill" fill-rule="evenodd" d="M 64 29.7164C 64 46.1461 50.4563 59.4327 32.5108 59.4327C 27.0594 59.4327 21.9128 58.2041 17.3982 56.0325C 12.8497 60.49 7.26289 63.2187 1.3262 63.9902C 0.739302 64.0759 0.174961 63.5902 0.0282361 62.8901C -0.118488 62.1758 0.332986 61.7329 0.773159 61.2043C 2.95145 58.5755 5.59251 56.5182 6.63087 47.6891C 2.47744 42.703 1.02154 36.474 1.02154 29.7164C 1.02154 13.3009 14.5653 0 32.5108 0C 50.4563 0 64 13.3009 64 29.7164ZM 26.7403 21.8116L 30.6597 13.8686C 31.368 12.4348 33.4027 12.4528 34.1049 13.8686L 38.0243 21.8116L 46.7934 23.0895C 48.366 23.3175 48.9962 25.2552 47.8558 26.3651L 41.5115 32.5443L 43.0121 41.2732C 43.2822 42.851 41.6196 44.0269 40.2271 43.295L 32.3823 39.1735L 24.5375 43.295C 23.145 44.0329 21.4824 42.851 21.7525 41.2732L 23.253 32.5443L 16.9088 26.3651C 15.7684 25.2552 16.3986 23.3175 17.9712 23.0895L 26.7403 21.8116Z"/>
</defs>
</svg>
